<svg id="Layer_1" data-name="Layer 1" xmlns="http://www.w3.org/2000/svg" viewBox="0 0 89.68 28.63"><defs><style>.cls-1{fill:#929292;}</style></defs><path class="cls-1" d="M4.66,6.61c1.42,3.47,3.87,8,7.61,8.5,2.4.33,3.95-1.18,8.94-4.47,7.3-4.82,10.95-7.23,14.91-7.9C40.49,2,47.33,2.6,50.73,7.21,52.78,10,54,14.89,52.07,17.94a5.56,5.56,0,0,1-1,1.2c-6.39,5.59-13.8,12.08-21.16,10-3.26-.92-7.27-3.75-7-6.41.52-5.3,17.71-6,17.74-8.79C40.61,12.16,33.66,9.72,4.66,6.61Z" transform="translate(-4.66 -0.89)"/><path class="cls-1" d="M94.35,23.81c-1.41-3.47-3.87-8-7.61-8.5-2.4-.33-3.95,1.18-8.94,4.47-7.3,4.82-11,7.23-14.91,7.9-4.37.74-11.21.14-14.61-4.47-2.05-2.79-3.31-7.68-1.34-10.73A5.45,5.45,0,0,1,48,11.29C54.38,5.69,61.8-.8,69.15,1.3c3.26.92,7.27,3.75,7,6.41-.52,5.3-17.71,6-17.74,8.79C58.4,18.27,65.35,20.7,94.35,23.81Z" transform="translate(-4.66 -0.89)"/></svg>